# xmcd
#
# Track frame offsets:
#	150
#	14232
#	30142
#	45397
#	57582
#	70515
#	82305
#	94060
#	105662
#	120080
#	136452
#	151787
#	162920
#	177115
#	189425
#	199982
#	210822
#	224170
#	241430
#	258402
#
# Disc length: 3625
#
# Revision: 4
# Processed by: cddbd v1.5.1PL0 Copyright (c) Steve Scherf et al.
# Submitted via: ExactAudioCopy v0.90b4
# Normalized: r2:DSETVAR1,TDELIM( - ),TSWAP
#
DISCID=110e2714
DTITLE=Various Artist - By Request (Country's All-Time Best-Loved Songs and Stars - Disc 1
DYEAR=2002
DGENRE=Country
TTITLE0=Dolly Parton - I Will Always Love You
TTITLE1=Willie Nelson - Let It Be Me
TTITLE2=George Jones - Shine On (Shine All Your Sweet Love On Me)
TTITLE3=Tammy Wynette - Stand By Your Man
TTITLE4=Jim Reeves - Four Walls
TTITLE5=Patsy Cline Featuring The Jordanaires - Sweet Dreams
TTITLE6=B.J. Thomas - I Can't Help It (If I'm Still In Love With You)
TTITLE7=Sammi Smith - Help Me Make It Through The Night
TTITLE8=Charley Pride - Amazing Love
TTITLE9=Mickey Gilley - Stand By Me
TTITLE10=Conway Twitty - (Lost Her Love) On Our Last Date
TTITLE11=Marty Robbins - Singing The Blues
TTITLE12=Ricky Van Shelton - I'll Leave This World Loving You
TTITLE13=Charlie Rich - The Most Beautiful Girl
TTITLE14=Patsy Cline - Lovesick Blues
TTITLE15=Faron Young - Hello Walls
TTITLE16=George Morgan - Candy Kisses
TTITLE17=Ray Price - For The Good Times
TTITLE18=Shenandoah - Two Dozen Roses
TTITLE19=Merle Haggard - That's The Way Love Goes
EXTD=A461355\nA61356\nSSFLM03600-1
EXTT0=
EXTT1=
EXTT2=
EXTT3=
EXTT4=
EXTT5=
EXTT6=
EXTT7=
EXTT8=
EXTT9=
EXTT10=
EXTT11=
EXTT12=
EXTT13=
EXTT14=
EXTT15=
EXTT16=
EXTT17=
EXTT18=
EXTT19=
PLAYORDER=
